
<svg xmlns="http://www.w3.org/2000/svg" version="1.1" xmlns:xlink="http://www.w3.org/1999/xlink" preserveAspectRatio="none" x="0px" y="0px" width="640px" height="332px" viewBox="0 0 640 332">
<defs>
<g id="Layer0_0_FILL">
<path fill="#49A3FF" fill-opacity="0.09803921568627451" stroke="none" d="
M -0.6 109.4
L -0.6 313.9
Q 22.55 224.1 74.85 167.45 29.6 149.45 -0.6 109.4
M 639.9 -3.4
Q 626.6 -3.6 613.4 -3.5 607.1 -3.475 600.8 -3.45 352.4 1.25 146.1 112.35 105.45 134.2 74.85 167.45 132.4 190.3 213.4 173.55 312.95 152.75 430.4 57.6 501.5 -0.05 639.9 -3.4
M 264.95 -3.45
L 259.1 -9.3 -0.6 -9.3 -0.6 63.85
Q 95.454296875 -3.7384765625 208.7 -3.45
L 264.95 -3.45 Z"/>
</g>

<path id="Layer0_0_1_STROKES" stroke="#3692EF" stroke-width="7" stroke-linejoin="round" stroke-linecap="round" fill="none" d="
M 264.95 -3.45
L 600.8 -3.45
Q 607.1 -3.475 613.4 -3.5 626.6 -3.6 639.9 -3.4
M -0.6 313.9
Q 22.55 224.1 74.85 167.45 105.45 134.2 146.1 112.35 352.4 1.25 600.8 -3.45
M -0.6 63.85
Q 95.454296875 -3.7384765625 208.7 -3.45
L 264.95 -3.45"/>

<path id="Layer0_0_2_STROKES" stroke="#A6CFF9" stroke-width="7" stroke-linejoin="round" stroke-linecap="round" fill="none" d="
M 639.9 -3.4
Q 501.5 -0.05 430.4 57.6 312.95 152.75 213.4 173.55 132.4 190.3 74.85 167.45 29.6 149.45 -0.6 109.4"/>
</defs>

<g transform="matrix( 1, 0, 0, 1, 0,0) ">
<use xlink:href="#Layer0_0_FILL"/>

<use xlink:href="#Layer0_0_1_STROKES"/>

<use xlink:href="#Layer0_0_2_STROKES"/>
</g>
</svg>
